<svg xmlns="http://www.w3.org/2000/svg" width="42" height="42"><path data-name="Фигура 3" d="M12.882 21.876V18h-1.355v3.872a6.085 6.085 0 0 0 2.6 4.965l2.429 1.708.788-1.085-2.43-1.708a4.756 4.756 0 0 1-2.032-3.876zm4.063 11.466a2.668 2.668 0 1 0 2.71 2.668 2.691 2.691 0 0 0-2.71-2.668zm0 4a1.334 1.334 0 1 1 1.355-1.333 1.345 1.345 0 0 1-1.355 1.334zM35.909 5.333h6.1V3.122l-.136-.178A7.488 7.488 0 0 0 29.284 4h-6.53a3.389 3.389 0 0 0-5.349-1.14 3.386 3.386 0 0 0-5.878-.84 3.386 3.386 0 0 0-5.878.84A3.382 3.382 0 0 0 .013 5.334v14.128L3.4 28.131v13.88h18.964v-13.1l8.183-10.072-1.6-6.808a3.444 3.444 0 0 0-.669-1.359h1a7.264 7.264 0 0 0 1.066 1.551 7.511 7.511 0 0 0 5.557 2.45 7.426 7.426 0 0 0 5.96-2.946l.136-.178V9.338h-6.1a.674.674 0 0 1-.677-.667V6a.673.673 0 0 1 .689-.666zm-16.254-2a2.019 2.019 0 0 1 2.031 2v4h-1.693a3.742 3.742 0 0 0-2.37.841V5.332a2.019 2.019 0 0 1 2.032-1.999zM14.236 2a2.019 2.019 0 0 1 2.032 2v8a2.032 2.032 0 0 1-4.064 0V4a2.019 2.019 0 0 1 2.032-2zm-7.45 2a2.032 2.032 0 0 1 4.064 0v8a2.032 2.032 0 0 1-4.064 0V4zM1.368 5.334a2.032 2.032 0 0 1 4.064 0v8a2.032 2.032 0 0 1-4.064 0v-8zm3.386 35.344v-4h1.355v-1.333H4.754v-4h16.255v9.337H4.754zm22.878-28.351l1.448 6.18-8.071 9.933v1.568H4.754v-2.125l-3.386-8.669v-3.228a3.377 3.377 0 0 0 5.2-1.51 3.378 3.378 0 0 0 4.958-.494 3.388 3.388 0 0 0 5.03.436 3.731 3.731 0 0 0 3.436 2.252h.339v.922l-3.689 1.817.606 1.193 4.437-2.186V16.67h2.032v-1.333h-3.725a2.334 2.334 0 1 1 0-4.668h5.521a2.157 2.157 0 0 1 2.119 1.658zm-2.118-2.992h-2.473v-4h5.7a6.759 6.759 0 0 0-.233 1.147 7.283 7.283 0 0 0 .245 2.854h-3.24zm10.395 1.334h4.741v.431a6.071 6.071 0 0 1-4.741 2.241 6.15 6.15 0 0 1-4.548-2 5.9 5.9 0 0 1-1.507-4.7 6.078 6.078 0 0 1 5.19-5.239 6.418 6.418 0 0 1 .871-.06 6.061 6.061 0 0 1 4.735 2.241V4h-4.741a2.019 2.019 0 0 0-2.031 2v2.667a2.019 2.019 0 0 0 2.031 2.002zM7.463 35.343h5.419v1.333H7.463v-1.333z" fill="#c6c6c6" fill-rule="evenodd"/></svg>