<svg xmlns="http://www.w3.org/2000/svg" width="72" height="53" viewBox="0 0 72 53">
  <metadata><?xpacket begin="﻿" id="W5M0MpCehiHzreSzNTczkc9d"?>
<x:xmpmeta xmlns:x="adobe:ns:meta/" x:xmptk="Adobe XMP Core 5.6-c138 79.159824, 2016/09/14-01:09:01        ">
   <rdf:RDF xmlns:rdf="http://www.w3.org/1999/02/22-rdf-syntax-ns#">
      <rdf:Description rdf:about=""/>
   </rdf:RDF>
</x:xmpmeta>
                                                                                                    
                                                                                                    
                                                                                                    
                                                                                                    
                                                                                                    
                                                                                                    
                                                                                                    
                                                                                                    
                                                                                                    
                                                                                                    
                                                                                                    
                                                                                                    
                                                                                                    
                                                                                                    
                                                                                                    
                                                                                                    
                                                                                                    
                                                                                                    
                                                                                                    
                                                                                                    
                           
<?xpacket end="w"?></metadata>
<defs>
    <style>
      .cls-1 {
        fill: #fe8100;
        fill-rule: evenodd;
      }
    </style>
  </defs>
  <path id="pointer" class="cls-1" d="M569.89,498.859a1.326,1.326,0,0,0,.926-0.3,1.075,1.075,0,0,0,.333-0.838,1.042,1.042,0,0,0-.333-0.81,1.326,1.326,0,0,0-.926-0.3h-3.285v-6.183a1.286,1.286,0,0,0-.34-0.923,1.468,1.468,0,0,0-1.924,0,1.286,1.286,0,0,0-.34.923v7.155a1.291,1.291,0,0,0,.34.915,1.191,1.191,0,0,0,.919.367h4.63ZM582.55,499a3.807,3.807,0,0,0,3.075-1.126,4.487,4.487,0,0,0,.948-2.986v-4.465a1.372,1.372,0,0,0-.3-0.93,1.138,1.138,0,0,0-.912-0.352,1.175,1.175,0,0,0-.926.359,1.34,1.34,0,0,0-.318.923v4.648a1.838,1.838,0,0,1-.383,1.218,1.6,1.6,0,0,1-2.243,0,1.832,1.832,0,0,1-.383-1.218v-4.648a1.27,1.27,0,0,0-.348-0.923,1.285,1.285,0,0,0-.969-0.359,1.239,1.239,0,0,0-.955.359,1.3,1.3,0,0,0-.333.923v4.465a4.446,4.446,0,0,0,.962,2.986A3.853,3.853,0,0,0,582.55,499Zm14.224-9.183a1.584,1.584,0,0,0-.839-0.641,1.311,1.311,0,0,0-1.1.247,1.109,1.109,0,0,0-.456.894,1.376,1.376,0,0,0,.326.937l2.2,2.662-2.416,3.056a1.215,1.215,0,0,0-.3.881,1.09,1.09,0,0,0,.477.824,1.234,1.234,0,0,0,1.766-.493l1.895-2.536,2,2.592a1.458,1.458,0,0,0,.832.6,1.232,1.232,0,0,0,1-.233,1.125,1.125,0,0,0,.492-0.852,1.36,1.36,0,0,0-.289-0.965l-2.445-3.028,2.156-2.676a1.559,1.559,0,0,0,.354-0.895,1.04,1.04,0,0,0-.456-0.81q-0.94-.675-1.765.479l-1.693,2.212ZM609.768,494a5.126,5.126,0,0,0,1.28,3.6,5.351,5.351,0,0,0,7.22,0,5.7,5.7,0,0,0,0-7.2,5.351,5.351,0,0,0-7.22,0A5.128,5.128,0,0,0,609.768,494Zm2.749,0a3.377,3.377,0,0,1,.535-1.986,2.077,2.077,0,0,1,3.212,0,3.954,3.954,0,0,1,0,3.972,2.075,2.075,0,0,1-3.212,0A3.377,3.377,0,0,1,612.517,494Zm21.081,0.606-3.7-4.789a1.521,1.521,0,0,0-1.229-.676,1.093,1.093,0,0,0-1.187,1.282v7.155a1.094,1.094,0,0,0,1.187,1.282,1.1,1.1,0,0,0,1.215-1.282v-3.972l3.776,4.634a1.4,1.4,0,0,0,1.129.62,1.155,1.155,0,0,0,.89-0.352,1.316,1.316,0,0,0,.325-0.93v-7.155a1.24,1.24,0,0,0-2.112-.923,1.424,1.424,0,0,0-.29.923v4.183ZM600,542c-3.083,0-11-15.925-11-22a11,11,0,0,1,22,0C611,526.075,602.988,542,600,542Zm0-28a6,6,0,1,0,6,6A6,6,0,0,0,600,514Z" transform="translate(-564 -489)"/>
</svg>
