<svg xmlns="http://www.w3.org/2000/svg" width="177" height="25"><path d="M14.479 24.647a3.223 3.223 0 0 0 2.276-.757 2.711 2.711 0 0 0 .818-2.1 2.624 2.624 0 0 0-.818-2.025 3.223 3.223 0 0 0-2.276-.757H6.405V3.554a3.252 3.252 0 0 0-.836-2.306 3.565 3.565 0 0 0-4.731 0A3.252 3.252 0 0 0 0 3.554v17.888a3.267 3.267 0 0 0 .836 2.289 2.907 2.907 0 0 0 2.259.915h11.382zM45.6 25q5.229 0 7.559-2.817a11.341 11.341 0 0 0 2.329-7.465V3.554a3.47 3.47 0 0 0-.746-2.324 2.776 2.776 0 0 0-2.241-.88 2.858 2.858 0 0 0-2.277.9 3.386 3.386 0 0 0-.782 2.307v11.62a4.638 4.638 0 0 1-.943 3.046 3.892 3.892 0 0 1-5.513 0 4.638 4.638 0 0 1-.943-3.046V3.554a3.211 3.211 0 0 0-.853-2.306 3.134 3.134 0 0 0-2.384-.9 3.014 3.014 0 0 0-2.347.9 3.29 3.29 0 0 0-.818 2.307v11.162a11.226 11.226 0 0 0 2.365 7.465Q40.375 25 45.6 25zM80.569 2.04a3.894 3.894 0 0 0-2.063-1.6 3.181 3.181 0 0 0-2.7.616 2.789 2.789 0 0 0-1.12 2.236 3.472 3.472 0 0 0 .8 2.342l5.406 6.655-5.94 7.641a3.067 3.067 0 0 0-.747 2.2 2.737 2.737 0 0 0 1.174 2.06q2.49 1.409 4.34-1.232l4.659-6.338 4.909 6.479a3.582 3.582 0 0 0 2.045 1.5 2.987 2.987 0 0 0 2.472-.581 2.826 2.826 0 0 0 1.21-2.13 3.439 3.439 0 0 0-.712-2.412L88.288 11.9l5.3-6.69a3.926 3.926 0 0 0 .871-2.236 2.611 2.611 0 0 0-1.12-2.025q-2.313-1.69-4.34 1.2l-4.161 5.528zm31.943 10.46a12.949 12.949 0 0 0 3.148 9q3.148 3.5 8.875 3.5t8.874-3.5a12.949 12.949 0 0 0 3.148-9 12.95 12.95 0 0 0-3.148-9Q130.262 0 124.535 0t-8.875 3.5a12.95 12.95 0 0 0-3.148 9zm6.758 0a8.555 8.555 0 0 1 1.316-4.965 5.05 5.05 0 0 1 7.9 0 10.024 10.024 0 0 1 0 9.93 5.05 5.05 0 0 1-7.9 0 8.555 8.555 0 0 1-1.316-4.965zm51.83 1.513L161.99 2.04a3.726 3.726 0 0 0-3.023-1.69q-2.916 0-2.917 3.2v17.892q0 3.2 2.917 3.2 2.988 0 2.988-3.2v-9.93l9.284 11.588a3.418 3.418 0 0 0 2.774 1.549 2.806 2.806 0 0 0 2.187-.88 3.32 3.32 0 0 0 .8-2.324V3.554q0-3.2-2.952-3.2a2.685 2.685 0 0 0-2.241.9 3.6 3.6 0 0 0-.712 2.307v10.452z" fill="#fe8100" fill-rule="evenodd"/></svg>